<svg width="512" height="512" viewBox="0 0 512 512" fill="none" xmlns="http://www.w3.org/2000/svg">
<g clip-path="url(#clip0_233_517)">
<rect width="512" height="512" fill="#1D1D1F"/>
<path d="M381.703 364.382H435.353L441 353.185L415.587 343.387V256.048C415.587 242.797 411.822 232.347 404.292 224.695C396.763 216.857 386.597 212.938 373.797 212.938C367.397 212.938 362.22 213.684 358.267 215.177L319.583 245.41V120H308.853L260.568 137.916V146.594L285.699 163.95V336.109L260.568 355.704V364.382H339.348L344.996 353.185L319.583 343.387V258.567C327.865 252.222 335.019 247.93 341.042 245.69C347.254 243.451 353.467 242.331 359.679 242.331C367.961 242.331 373.703 244.384 376.903 248.489C380.103 252.595 381.703 259.78 381.703 270.044V364.382Z" fill="#8BB3C3"/>
<path d="M204.762 298.699C209.479 303.712 211.837 309.097 211.837 314.853C211.837 320.98 210.233 326.829 207.026 332.4C203.819 337.784 199.197 342.148 193.16 345.49C187.123 348.832 180.236 350.504 172.501 350.504C159.484 350.504 146.844 346.326 134.581 337.97C122.318 329.614 111.375 317.917 101.754 302.876H91V356.91C98.3578 360.066 110.432 363.037 127.223 365.822C144.202 368.607 158.823 370 171.086 370C181.085 370 192.122 366.379 204.196 359.138C216.459 351.71 226.836 342.705 235.325 332.121C243.815 321.352 248.06 311.325 248.06 302.041C248.06 293.314 245.041 285.515 239.004 278.645C233.156 271.589 225.892 265.462 217.214 260.263C208.535 254.878 197.216 248.75 183.255 241.88C170.615 235.381 160.71 230.09 153.541 226.005C146.561 221.92 140.618 217.278 135.713 212.079C130.996 206.694 128.638 200.938 128.638 194.81C128.638 184.226 131.751 175.685 137.976 169.186C144.391 162.502 152.975 159.159 163.729 159.159C175.803 159.159 187.311 163.337 198.253 171.693C209.384 180.049 219.572 191.746 228.816 206.787H239.57V152.753C232.401 149.597 221.081 146.626 205.611 143.841C190.141 141.056 176.558 139.663 164.861 139.663C155.239 139.663 144.674 143.377 133.166 150.804C121.846 158.045 112.224 167.051 104.301 177.82C96.3768 188.404 92.415 198.338 92.415 207.622C92.415 216.349 95.4335 224.333 101.471 231.575C107.696 238.817 115.149 245.13 123.827 250.514C132.505 255.713 144.014 262.027 158.352 269.454C170.426 275.581 179.953 280.78 186.934 285.051C194.103 289.136 200.046 293.685 204.762 298.699Z" fill="#F1D5AB"/>
</g>
<defs>
<clipPath id="clip0_233_517">
<rect width="512" height="512" rx="160" fill="white"/>
</clipPath>
</defs>
</svg>
