<svg width="62" height="50" viewBox="0 0 62 50" fill="none" xmlns="http://www.w3.org/2000/svg">
<path d="M24.3892 27.7418C24.6151 23.7407 26.5886 20.2157 29.566 17.7169C32.4858 15.2625 36.4159 13.7624 40.7039 13.7624C44.9878 13.7624 48.9178 15.2625 51.8398 17.7169C54.815 20.2157 56.7885 23.7407 57.0166 27.7376C57.2425 31.8487 55.578 35.6678 52.6582 38.4988C49.6808 41.3784 45.446 43.1853 40.7039 43.1853C35.9619 43.1853 31.7186 41.3784 28.7433 38.4988C25.8214 35.6678 24.1611 31.8486 24.3892 27.7418Z" fill="white"/>
<path d="M32.3206 28.1035C32.4365 26.0505 33.4492 24.2418 34.9769 22.9596C36.4751 21.7003 38.4916 20.9306 40.6918 20.9306C42.8899 20.9306 44.9064 21.7003 46.4057 22.9596C47.9323 24.2418 48.9449 26.0505 49.0619 28.1013C49.1778 30.2107 48.3238 32.1703 46.8256 33.6229C45.2979 35.1005 43.125 36.0276 40.6918 36.0276C38.2586 36.0276 36.0814 35.1005 34.5548 33.6229C33.0555 32.1703 32.2036 30.2107 32.3206 28.1035Z" fill="#265787"/>
<path d="M18.9901 32.2615C19.0043 33.0649 19.2624 34.6261 19.6495 35.8452C20.4631 38.4258 21.8432 40.8132 23.7635 42.9171C25.7341 45.0798 28.1607 46.8168 30.9635 48.0501C33.9096 49.3453 37.1017 50.0054 40.4173 50C43.7275 49.9956 46.9197 49.3225 49.8657 48.0175C52.6685 46.7723 55.0929 45.0277 57.0602 42.864C58.9794 40.7513 60.3573 38.3596 61.1731 35.779C61.5832 34.4751 61.8424 33.1517 61.9463 31.824C62.048 30.5158 62.0053 29.2054 61.8183 27.8961C61.4531 25.3448 60.564 22.9509 59.1948 20.7688C57.9427 18.7636 56.3286 17.0081 54.4094 15.5305L54.4138 15.5273L35.0458 0.763464C35.0283 0.750436 35.0141 0.736344 34.9955 0.724402C33.7247 -0.243999 31.5879 -0.240737 30.1904 0.729836C28.7775 1.71126 28.6156 3.33429 29.8732 4.35806L29.8677 4.3635L37.9459 10.885L13.3244 10.9111H13.2916C11.2564 10.9132 9.30007 12.2388 8.91295 13.914C8.5149 15.6206 9.89715 17.0363 12.0132 17.0439L12.0099 17.0515L24.4896 17.0276L2.22035 33.9975C2.19192 34.0181 2.16129 34.0398 2.13505 34.0604C0.03432 35.6574 -0.644765 38.3129 0.678443 39.9935C2.02134 41.7023 4.87662 41.7056 6.99922 40.0033L19.153 30.1282C19.153 30.1282 18.9759 31.4614 18.9901 32.2615ZM50.2211 36.7257C47.7168 39.2585 44.2109 40.6948 40.4173 40.7024C36.6183 40.709 33.1123 39.2857 30.6081 36.7572C29.3844 35.525 28.4855 34.1071 27.931 32.597C27.3875 31.1129 27.1765 29.5376 27.3165 27.9482C27.4488 26.3946 27.9147 24.9127 28.6583 23.5719C29.3888 22.2539 30.3948 21.063 31.6371 20.0555C34.0714 18.0861 37.1706 17.02 40.4119 17.0157C43.6565 17.0113 46.7534 18.0677 49.1899 20.0305C50.43 21.0337 51.435 22.2203 52.1655 23.5361C52.9124 24.8758 53.3749 26.3523 53.5127 27.9102C53.6505 29.4974 53.4395 31.0705 52.896 32.5557C52.3404 34.0702 51.4448 35.488 50.2211 36.7257Z" fill="#EA7600"/>
</svg>
