<svg width="44" height="50" viewBox="0 0 44 50" fill="none" xmlns="http://www.w3.org/2000/svg">
<path fill-rule="evenodd" clip-rule="evenodd" d="M44 8.33333L35.2 16.6667H17.6V22.9167H26.4V31.25H17.6V41.6667L8.8 50H17.7108C18.378 50 18.969 49.5932 19.1751 48.9923L20.7679 44.3501C20.9202 43.9061 21.2882 43.5587 21.757 43.4145L22.9814 43.0377C23.4502 42.8933 23.9639 42.97 24.3627 43.2444L28.5316 46.1135C29.0714 46.4848 29.803 46.4848 30.3427 46.1135L34.0796 43.5415C34.6194 43.1702 34.8451 42.5125 34.639 41.9116L33.0462 37.2693C32.8937 36.8253 32.9758 36.3389 33.2655 35.9612L34.0227 34.9751C34.3124 34.5974 34.7746 34.3733 35.2676 34.3733L40.4222 34.3743C41.0894 34.3744 41.6803 33.9665 41.8865 33.3656L43.3144 29.2056C43.5205 28.6048 43.2946 27.946 42.755 27.5746L38.585 24.7055C38.1861 24.4311 37.9506 23.9935 37.9506 23.5266V22.3069C37.9506 21.8401 38.1861 21.4013 38.585 21.1269L43.3655 17.838C43.7644 17.5636 44 17.1249 44 16.6581V8.33333Z" fill="#418FDE"/>
<path fill-rule="evenodd" clip-rule="evenodd" d="M35.2 0L26.4 8.33333H35.2V16.6667L44 8.33333V0H35.2ZM8.8 33.3333L0 41.6667V50L8.8 50L17.6 41.6667H8.8V33.3333Z" fill="#FF585D"/>
<path fill-rule="evenodd" clip-rule="evenodd" d="M8.8 0L0 8.33333V41.6667L8.8 33.3333V8.33333L26.4 8.33333L35.2 0H8.8Z" fill="#CB333B"/>
<path fill-rule="evenodd" clip-rule="evenodd" d="M8.8 41.6667H17.6V31.25H26.4V22.9167H17.6V16.6667H35.2V8.33333L8.8 8.33333V41.6667Z" fill="white"/>
</svg>
