<svg width="55" height="50" viewBox="0 0 55 50" fill="none" xmlns="http://www.w3.org/2000/svg">
<path d="M8.86258 0.00107799L50.699 9.22153H55V49.9993H7.81999C6.20092 50.0351 4.85903 48.7563 4.82305 47.143C4.82253 47.1211 4.82226 47.0991 4.82225 47.0772V43.0514L8.86258 0.00107799Z" fill="#705A01"/>
<path d="M50.9598 40.9084H8.8627L8.86258 0.00107799L47.9622 0.000735705C49.5812 -0.0351149 50.923 1.24375 50.959 2.85714C50.9595 2.87906 50.9598 2.90086 50.9598 2.92267V40.9084Z" fill="#DBAE03"/>
<path d="M0 46.2332L8.92766 40.9087L8.92778 0.00107799L0.000114521 5.32557L0 46.2332Z" fill="#EACD5D"/>
<path d="M32.7785 13.1824V27.7273H35.7109V31.8181H24.1766V27.7273H27.109V13.1824H24.1114V9.15645H35.6457V13.1822L32.7785 13.1824Z" fill="white"/>
</svg>
