<svg width="906" height="300" viewBox="0 0 906 300" fill="none" xmlns="http://www.w3.org/2000/svg">
<path d="M171.941 281.68L186.097 300H167.738L160.55 290.757C154.614 294.004 147.997 295.628 140.698 295.628C128.495 295.628 118.357 291.421 110.284 283.009C102.21 274.559 98.1736 264.504 98.1736 252.844C98.1736 245.059 100.054 237.919 103.814 231.425C107.574 224.894 112.735 219.71 119.297 215.872C125.896 212.035 132.974 210.116 140.532 210.116C152.071 210.116 161.969 214.286 170.227 222.625C178.521 230.964 182.669 241.129 182.669 253.121C182.669 264.154 179.093 273.673 171.941 281.68ZM162.264 269.172C165.545 264.301 167.185 258.914 167.185 253.01C167.185 245.299 164.586 238.749 159.388 233.362C154.19 227.975 147.905 225.281 140.532 225.281C132.938 225.281 126.578 227.901 121.454 233.141C116.33 238.38 113.768 245.04 113.768 253.121C113.768 262.124 116.993 269.246 123.445 274.485C128.495 278.581 134.228 280.629 140.642 280.629C144.329 280.629 147.794 279.909 151.038 278.47L136.495 259.707H154.965L162.264 269.172Z" fill="#7A7A7A"/>
<path d="M203.826 232.255H188.951C189.725 226.241 191.881 221.407 195.42 217.754C200.36 212.662 206.572 210.116 214.056 210.116C220.728 210.116 226.313 212.238 230.811 216.481C235.345 220.724 237.613 225.761 237.613 231.591C237.613 235.207 236.617 238.509 234.627 241.498C232.673 244.487 229.816 246.904 226.055 248.749C230.995 250.225 234.848 252.807 237.613 256.497C240.414 260.15 241.815 264.467 241.815 269.449C241.815 276.754 239.124 282.953 233.742 288.045C228.36 293.1 221.503 295.628 213.171 295.628C205.282 295.628 198.849 293.248 193.872 288.488C188.895 283.691 186.167 277.179 185.688 268.95H201.006C201.669 273.157 203.125 276.293 205.374 278.359C207.66 280.389 210.535 281.404 214 281.404C217.613 281.404 220.599 280.241 222.959 277.917C225.355 275.592 226.553 272.751 226.553 269.393C226.553 265.703 224.949 262.585 221.742 260.039C218.535 257.494 213.908 256.184 207.862 256.11V242.826C211.586 242.531 214.351 241.959 216.157 241.111C218 240.225 219.42 239.026 220.415 237.513C221.447 236 221.963 234.395 221.963 232.698C221.963 230.484 221.189 228.658 219.641 227.219C218.093 225.743 216.065 225.005 213.558 225.005C211.346 225.005 209.337 225.687 207.531 227.052C205.724 228.381 204.489 230.115 203.826 232.255Z" fill="#7A7A7A"/>
<path d="M259.046 212.164H297.146V226.444H270.603L267.286 241.277C268.207 241.018 269.11 240.834 269.995 240.723C270.88 240.576 271.728 240.502 272.539 240.502C279.912 240.502 286.031 243.029 290.898 248.084C295.801 253.103 298.252 259.541 298.252 267.401C298.252 275.334 295.543 282.031 290.124 287.492C284.741 292.916 278.179 295.628 270.437 295.628C263.507 295.628 257.553 293.654 252.576 289.706C247.599 285.758 244.337 280.352 242.789 273.489H259.046C260.3 276.035 261.94 277.972 263.968 279.3C266.032 280.592 268.299 281.238 270.769 281.238C274.198 281.238 277.11 280.001 279.506 277.529C281.903 275.057 283.101 271.884 283.101 268.009C283.101 264.246 281.976 261.165 279.728 258.766C277.516 256.331 274.824 255.114 271.654 255.114C269.958 255.114 268.281 255.538 266.622 256.387C265 257.235 263.396 258.508 261.811 260.206L249.203 257.383L259.046 212.164Z" fill="#7A7A7A"/>
<path d="M376.123 233.362H391.164V293.58H376.123V287.215C373.174 290.019 370.206 292.049 367.22 293.303C364.271 294.521 361.063 295.13 357.598 295.13C349.819 295.13 343.091 292.122 337.414 286.108C331.737 280.057 328.898 272.548 328.898 263.582C328.898 254.283 331.645 246.664 337.138 240.723C342.631 234.783 349.303 231.812 357.156 231.812C360.768 231.812 364.16 232.495 367.33 233.86C370.501 235.225 373.432 237.273 376.123 240.004V233.362ZM360.252 245.76C355.57 245.76 351.681 247.42 348.584 250.741C345.488 254.025 343.939 258.25 343.939 263.416C343.939 268.618 345.506 272.899 348.64 276.256C351.81 279.614 355.699 281.293 360.308 281.293C365.063 281.293 369.008 279.651 372.141 276.367C375.275 273.046 376.842 268.711 376.842 263.36C376.842 258.121 375.275 253.877 372.141 250.63C369.008 247.383 365.045 245.76 360.252 245.76Z" fill="#7A7A7A"/>
<path d="M400.763 233.362H415.804V239.506C419.233 236.628 422.33 234.635 425.095 233.528C427.896 232.384 430.753 231.812 433.666 231.812C439.638 231.812 444.707 233.897 448.873 238.067C452.375 241.609 454.126 246.848 454.126 253.785V293.58H439.195V267.179C439.195 259.984 438.864 255.206 438.2 252.844C437.573 250.483 436.449 248.693 434.827 247.476C433.242 246.221 431.269 245.594 428.91 245.594C425.85 245.594 423.214 246.627 421.002 248.693C418.827 250.723 417.316 253.545 416.468 257.161C416.026 259.043 415.804 263.12 415.804 269.393V293.58H400.763V233.362Z" fill="#7A7A7A"/>
<path d="M507.577 210.116H522.618V293.58H507.577V287.215C504.628 290.019 501.66 292.049 498.674 293.303C495.725 294.521 492.517 295.13 489.052 295.13C481.273 295.13 474.546 292.122 468.868 286.108C463.191 280.057 460.352 272.548 460.352 263.582C460.352 254.283 463.099 246.664 468.592 240.723C474.085 234.783 480.757 231.812 488.61 231.812C492.222 231.812 495.614 232.495 498.784 233.86C501.955 235.225 504.886 237.273 507.577 240.004V210.116ZM491.706 245.76C487.024 245.76 483.135 247.42 480.038 250.741C476.942 254.025 475.393 258.25 475.393 263.416C475.393 268.618 476.96 272.899 480.094 276.256C483.264 279.614 487.153 281.293 491.762 281.293C496.517 281.293 500.462 279.651 503.595 276.367C506.729 273.046 508.296 268.711 508.296 263.36C508.296 258.121 506.729 253.877 503.595 250.63C500.462 247.383 496.499 245.76 491.706 245.76Z" fill="#7A7A7A"/>
<path d="M586.553 231.812C592.23 231.812 597.557 233.233 602.534 236.074C607.548 238.915 611.456 242.771 614.257 247.642C617.059 252.512 618.46 257.77 618.46 263.416C618.46 269.098 617.041 274.411 614.202 279.356C611.4 284.3 607.566 288.174 602.7 290.979C597.834 293.746 592.47 295.13 586.609 295.13C577.982 295.13 570.609 292.067 564.489 285.942C558.407 279.78 555.365 272.308 555.365 263.526C555.365 254.117 558.812 246.276 565.706 240.004C571.752 234.543 578.701 231.812 586.553 231.812ZM586.774 246.037C582.093 246.037 578.185 247.679 575.051 250.963C571.955 254.21 570.406 258.379 570.406 263.471C570.406 268.711 571.936 272.954 574.996 276.201C578.093 279.448 582 281.071 586.719 281.071C591.438 281.071 595.364 279.429 598.498 276.146C601.631 272.862 603.198 268.637 603.198 263.471C603.198 258.305 601.65 254.117 598.553 250.907C595.493 247.66 591.567 246.037 586.774 246.037Z" fill="#7A7A7A"/>
<path d="M627.009 211.168H642.05V233.362H651.008V246.369H642.05V293.58H627.009V246.369H619.267V233.362H627.009V211.168Z" fill="#7A7A7A"/>
<path d="M653.53 210.116H668.516V239.45C671.465 236.904 674.433 235.004 677.419 233.75C680.405 232.458 683.428 231.812 686.487 231.812C692.46 231.812 697.492 233.879 701.584 238.011C705.086 241.59 706.837 246.848 706.837 253.785V293.58H691.962V267.179C691.962 260.206 691.63 255.483 690.967 253.01C690.303 250.538 689.16 248.693 687.538 247.476C685.953 246.258 683.981 245.649 681.621 245.649C678.561 245.649 675.926 246.664 673.714 248.693C671.539 250.723 670.027 253.49 669.179 256.995C668.737 258.803 668.516 262.936 668.516 269.393V293.58H653.53V210.116Z" fill="#7A7A7A"/>
<path d="M776.103 267.843H727.607C728.307 272.124 730.169 275.537 733.192 278.083C736.252 280.592 740.141 281.846 744.86 281.846C750.5 281.846 755.348 279.872 759.403 275.924L772.122 281.902C768.951 286.403 765.154 289.743 760.73 291.92C756.307 294.06 751.053 295.13 744.97 295.13C735.533 295.13 727.847 292.159 721.911 286.219C715.976 280.241 713.008 272.769 713.008 263.803C713.008 254.615 715.958 246.996 721.856 240.945C727.791 234.856 735.22 231.812 744.141 231.812C753.615 231.812 761.32 234.856 767.256 240.945C773.191 246.996 776.158 255.003 776.158 264.965L776.103 267.843ZM760.952 255.944C759.956 252.586 757.984 249.856 755.035 247.752C752.122 245.649 748.731 244.598 744.86 244.598C740.657 244.598 736.971 245.778 733.8 248.14C731.81 249.616 729.966 252.217 728.271 255.944H760.952Z" fill="#7A7A7A"/>
<path d="M779.178 233.362H792.117V240.945C793.518 237.956 795.38 235.687 797.703 234.137C800.025 232.587 802.569 231.812 805.334 231.812C807.287 231.812 809.334 232.329 811.472 233.362L806.771 246.369C805.002 245.483 803.546 245.04 802.403 245.04C800.08 245.04 798.108 246.479 796.486 249.357C794.901 252.236 794.108 257.881 794.108 266.294L794.163 269.227V293.58H779.178V233.362Z" fill="#7A7A7A"/>
<path d="M850.158 241.775L840.813 251.129C837.016 247.365 833.569 245.483 830.472 245.483C828.776 245.483 827.449 245.852 826.491 246.59C825.532 247.291 825.053 248.177 825.053 249.247C825.053 250.059 825.348 250.815 825.938 251.516C826.564 252.18 828.076 253.103 830.472 254.283L836.002 257.051C841.827 259.929 845.826 262.862 848.001 265.851C850.177 268.84 851.264 272.345 851.264 276.367C851.264 281.717 849.292 286.182 845.347 289.761C841.439 293.34 836.186 295.13 829.587 295.13C820.813 295.13 813.809 291.698 808.574 284.835L817.864 274.707C819.634 276.773 821.698 278.452 824.057 279.743C826.454 280.998 828.573 281.625 830.417 281.625C832.407 281.625 834.011 281.145 835.228 280.186C836.444 279.227 837.052 278.12 837.052 276.865C837.052 274.54 834.859 272.271 830.472 270.057L825.385 267.511C815.652 262.604 810.786 256.46 810.786 249.081C810.786 244.321 812.611 240.262 816.26 236.904C819.947 233.51 824.647 231.812 830.361 231.812C834.269 231.812 837.937 232.679 841.366 234.414C844.831 236.111 847.762 238.565 850.158 241.775Z" fill="#7A7A7A"/>
<path fill-rule="evenodd" clip-rule="evenodd" d="M150.306 54.9636C174.415 54.9636 194.021 62.6753 209.125 78.0987C224.228 93.4287 231.78 113.713 231.78 138.951L231.639 146.242H108.232C110.014 157.085 114.752 165.732 122.444 172.182C130.231 178.538 140.127 181.716 152.135 181.716C166.488 181.716 178.824 176.715 189.143 166.713L221.507 181.856C213.44 193.26 203.777 201.72 192.52 207.235C181.263 212.657 167.895 215.367 152.417 215.367C128.401 215.367 108.842 207.843 93.7385 192.793C78.6351 177.65 71.0834 158.721 71.0834 136.007C71.0834 112.731 78.5882 93.4287 93.5978 78.0987C108.701 62.6753 127.604 54.9636 150.306 54.9636ZM152.135 87.3528C141.441 87.3528 132.06 90.344 123.992 96.3264C118.926 100.065 114.236 106.655 109.921 116.096H193.083C190.55 107.59 185.531 100.673 178.027 95.345C170.616 90.0169 161.985 87.3528 152.135 87.3528Z" fill="white"/>
<path fill-rule="evenodd" clip-rule="evenodd" d="M545.579 211.441H507.305V195.317C499.8 202.421 492.248 207.562 484.65 210.74C477.145 213.825 468.983 215.367 460.165 215.367C440.371 215.367 423.251 207.749 408.804 192.513C394.358 177.183 387.134 158.16 387.134 135.446C387.134 111.89 394.123 92.5874 408.101 77.5379C422.078 62.4883 439.058 54.9636 459.039 54.9636C468.233 54.9636 476.863 56.6929 484.931 60.1514C492.999 63.61 500.456 68.7979 507.305 75.7151V0H545.579V211.441ZM466.919 90.2973C455.006 90.2973 445.109 94.5037 437.229 102.916C429.349 111.236 425.409 121.939 425.409 135.025C425.409 148.205 429.396 159.048 437.369 167.555C445.437 176.061 455.334 180.314 467.06 180.314C479.162 180.314 489.199 176.154 497.173 167.835C505.147 159.422 509.134 148.439 509.134 134.885C509.134 121.612 505.147 110.862 497.173 102.636C489.199 94.4102 479.115 90.2973 466.919 90.2973Z" fill="white"/>
<path fill-rule="evenodd" clip-rule="evenodd" d="M633.407 54.9636C657.517 54.9636 677.123 62.6753 692.226 78.0987C707.33 93.4287 714.881 113.713 714.881 138.951L714.741 146.242H591.334C593.116 157.085 597.854 165.732 605.546 172.182C613.332 178.538 623.229 181.716 635.237 181.716C649.59 181.716 661.926 176.715 672.245 166.713L704.609 181.856C696.541 193.26 686.879 201.72 675.622 207.235C664.365 212.657 650.997 215.367 635.518 215.367C611.503 215.367 591.944 207.843 576.84 192.793C561.737 177.65 554.185 158.721 554.185 136.007C554.185 112.731 561.69 93.4287 576.699 78.0987C591.803 62.6753 610.706 54.9636 633.407 54.9636ZM635.237 87.3528C624.542 87.3528 615.161 90.344 607.094 96.3264C602.028 100.065 597.338 106.655 593.022 116.096H676.185C673.652 107.59 668.633 100.673 661.128 95.345C653.717 90.0169 645.087 87.3528 635.237 87.3528Z" fill="white"/>
<path d="M852.81 54.9636C862.754 54.9636 872.088 57.1602 880.812 61.5536C889.63 65.8534 897.088 72.0696 903.186 80.2019L879.405 103.898C869.743 94.3635 860.971 89.5962 853.091 89.5962C848.776 89.5962 845.399 90.531 842.96 92.4005C840.521 94.1765 839.301 96.4199 839.301 99.1307C839.301 101.187 840.052 103.103 841.553 104.879C843.147 106.562 846.994 108.899 853.091 111.89L867.163 118.901C881.985 126.192 892.163 133.623 897.698 141.195C903.233 148.766 906 157.646 906 167.835C906 181.389 900.981 192.7 890.944 201.767C881 210.834 867.632 215.367 850.84 215.367C828.513 215.367 810.689 206.674 797.368 189.288L821.008 163.629C825.511 168.863 830.765 173.117 836.768 176.388C842.866 179.566 848.26 181.155 852.951 181.155C858.016 181.155 862.097 179.94 865.193 177.51C868.288 175.08 869.836 172.275 869.836 169.097C869.836 163.208 864.255 157.459 853.091 151.851L840.146 145.401C815.38 132.969 802.997 117.405 802.997 98.7101C802.997 86.6517 807.64 76.3694 816.928 67.8632C826.309 59.2634 838.269 54.9636 852.81 54.9636Z" fill="white"/>
<path d="M66.558 54.9636C71.53 54.9636 76.7364 56.2722 82.1774 58.8895L70.2166 91.8396C65.7138 89.5962 62.0083 88.4745 59.1002 88.4745C53.1902 88.4745 48.1713 92.12 44.0437 99.4111C40.0099 106.702 37.993 121.004 37.993 142.316L38.1337 149.748V211.441H0V58.8895H32.9272V78.0987C36.492 70.5272 41.2294 64.7785 47.1394 60.8525C53.0494 56.9265 59.5223 54.9636 66.558 54.9636Z" fill="white"/>
<path d="M324.989 54.9636C340.186 54.9636 353.085 60.2449 363.686 70.8076C372.597 79.7813 377.053 93.0548 377.053 110.628V211.441H339.06V144.56C339.06 126.332 338.216 114.227 336.528 108.245C334.933 102.262 332.072 97.7286 327.944 94.6439C323.91 91.4657 318.891 89.8766 312.888 89.8766C305.101 89.8766 298.394 92.494 292.765 97.7286C287.231 102.87 283.384 110.021 281.227 119.181C280.101 123.948 279.538 134.277 279.538 150.168V211.441H241.264V58.8895H279.538V74.4532C288.262 67.1621 296.143 62.1144 303.178 59.3102C310.308 56.4124 317.578 54.9636 324.989 54.9636Z" fill="white"/>
<path d="M789.122 54.9636C794.094 54.9636 799.301 56.2722 804.742 58.8895L792.781 91.8396C788.278 89.5962 784.573 88.4745 781.664 88.4745C775.754 88.4745 770.736 92.12 766.608 99.4111C762.574 106.702 760.557 121.004 760.557 142.316L760.698 149.748V211.441H722.564V58.8895H755.492V78.0987C759.056 70.5272 763.794 64.7785 769.704 60.8525C775.614 56.9265 782.087 54.9636 789.122 54.9636Z" fill="white"/>
</svg>
