<svg width="51" height="50" viewBox="0 0 51 50" fill="none" xmlns="http://www.w3.org/2000/svg">
<path d="M41.9687 0H9.03126C4.04343 0 0 4.06578 0 9.08117V40.9188C0 45.9342 4.04343 50 9.03126 50H41.9687C46.9566 50 51 45.9342 51 40.9188V9.08117C51 4.06578 46.9566 0 41.9687 0Z" fill="#00005B"/>
<path d="M20.4888 29.9143H12.585L10.9768 34.9468C10.9559 35.0388 10.9032 35.1204 10.8282 35.1772C10.7531 35.2339 10.6606 35.2622 10.5668 35.257H6.56819C6.34029 35.257 6.26068 35.1299 6.32935 34.8777L13.1722 15.1443C13.2399 14.9382 13.3085 14.736 13.3772 14.4728C13.4669 14.0136 13.5125 13.5469 13.5136 13.0789C13.5059 13.023 13.5205 12.9664 13.5543 12.9214C13.5881 12.8764 13.6382 12.8467 13.6937 12.8387C13.7135 12.8357 13.7336 12.8357 13.7534 12.8387H19.193C19.3523 12.8387 19.4438 12.8958 19.4667 13.0108L27.2291 34.9127C27.2955 35.1422 27.2271 35.257 27.0241 35.257H22.5757C22.4992 35.2653 22.4224 35.2454 22.3594 35.201C22.2965 35.1567 22.2517 35.0909 22.2333 35.0158L20.4888 29.9143ZM19.2269 25.6715C19.0895 25.2131 18.9297 24.6971 18.7472 24.1234C18.5648 23.5497 18.371 22.9363 18.166 22.2832L17.55 20.3218C17.345 19.6687 17.1569 19.0379 16.9857 18.4295C16.8146 17.8211 16.6593 17.2651 16.52 16.7614H16.4852C16.2931 17.6906 16.0533 18.6091 15.7666 19.5133C15.4475 20.546 15.1224 21.601 14.7914 22.6784C14.4603 23.7558 14.1355 24.7535 13.8171 25.6715H19.2269Z" fill="#9999FF"/>
<path d="M39.8192 27.956H33.0788C33.1612 28.6265 33.3826 29.2722 33.7287 29.8513C34.1114 30.4246 34.6524 30.8729 35.2851 31.1412C36.1432 31.5145 37.0712 31.6975 38.0059 31.6775C38.7472 31.6633 39.4857 31.5816 40.2122 31.4334C40.8623 31.3443 41.4992 31.1763 42.1091 30.933C42.2232 30.8423 42.2802 30.8997 42.2802 31.1052V34.3734C42.2906 34.4549 42.2766 34.5377 42.2401 34.6113C42.2036 34.6849 42.1462 34.7459 42.0752 34.7867C41.3983 35.0879 40.686 35.301 39.9555 35.4211C38.9632 35.609 37.9546 35.6955 36.9451 35.6793C35.3249 35.6793 33.9678 35.4271 32.8738 34.9227C31.8392 34.4643 30.9252 33.7694 30.2047 32.8934C29.5328 32.0679 29.0326 31.115 28.7338 30.0915C28.4386 29.0801 28.2888 28.0314 28.289 26.9773C28.2861 25.8268 28.4651 24.6831 28.8194 23.589C29.1613 22.5218 29.7017 21.5296 30.4117 20.6651C31.1118 19.8105 31.9873 19.1182 32.9783 18.6357C33.9814 18.1423 35.1677 17.9652 36.5361 17.9652C37.6712 17.937 38.7985 18.1605 39.8381 18.6197C40.7119 18.994 41.481 19.5781 42.0782 20.3208C42.6391 21.048 43.0676 21.8692 43.3441 22.7465C43.6137 23.5917 43.7523 24.4736 43.7551 25.3612C43.7551 25.8656 43.7378 26.3242 43.7033 26.7372C43.6695 27.1495 43.6406 27.4477 43.6188 27.6318C43.6095 27.7076 43.5731 27.7774 43.5163 27.8281C43.4595 27.8787 43.3862 27.9068 43.3102 27.907C43.1736 27.907 42.9397 27.924 42.6086 27.958C42.2782 27.993 41.8672 28.015 41.3776 28.0271C40.888 28.0391 40.3665 27.956 39.8192 27.956ZM33.0788 24.8219H37.5571C38.1045 24.8219 38.5092 24.8162 38.7712 24.8049C38.9471 24.7871 39.117 24.7308 39.2688 24.6398V24.4326C39.2616 24.1638 39.2153 23.8975 39.1315 23.6421C38.947 23.055 38.5759 22.5451 38.0751 22.1907C37.5744 21.8363 36.9718 21.6572 36.3599 21.6807C35.7842 21.646 35.2108 21.7804 34.7097 22.0675C34.2086 22.3547 33.8014 22.7821 33.5376 23.2978C33.3045 23.7779 33.1496 24.2925 33.0788 24.8219Z" fill="#9999FF"/>
</svg>
