<svg width="1438" height="520" viewBox="0 0 1438 520" fill="none" xmlns="http://www.w3.org/2000/svg">
<path d="M1380.92 411.016H1403.79V424.395C1406.27 419.121 1409.56 415.117 1413.66 412.383C1417.77 409.648 1422.27 408.281 1427.15 408.281C1430.6 408.281 1434.22 409.193 1438 411.016L1429.69 433.965C1426.57 432.402 1423.99 431.621 1421.97 431.621C1417.87 431.621 1414.38 434.16 1411.51 439.238C1408.71 444.316 1407.31 454.277 1407.31 469.121L1407.41 474.297V517.266H1380.92V411.016Z" fill="#7A7A7A"/>
<path d="M1372.49 471.855H1286.78C1288.01 479.408 1291.3 485.43 1296.65 489.922C1302.06 494.349 1308.93 496.562 1317.27 496.562C1327.24 496.562 1335.81 493.079 1342.97 486.113L1365.45 496.66C1359.85 504.603 1353.14 510.495 1345.32 514.336C1337.5 518.112 1328.21 520 1317.46 520C1300.78 520 1287.2 514.759 1276.71 504.277C1266.22 493.73 1260.97 480.547 1260.97 464.727C1260.97 448.516 1266.19 435.072 1276.61 424.395C1287.1 413.652 1300.23 408.281 1316 408.281C1332.74 408.281 1346.36 413.652 1356.85 424.395C1367.34 435.072 1372.59 449.199 1372.59 466.777L1372.49 471.855ZM1345.71 450.859C1343.95 444.935 1340.46 440.117 1335.25 436.406C1330.1 432.695 1324.11 430.84 1317.27 430.84C1309.84 430.84 1303.33 432.923 1297.72 437.09C1294.2 439.694 1290.95 444.284 1287.95 450.859H1345.71Z" fill="#7A7A7A"/>
<path d="M1110.06 411.016H1136.15L1157.56 471.465L1180.62 411.016H1196.55L1219.13 470.781L1240.53 411.016H1266.82L1228.02 517.266H1211.12L1188.44 456.719L1165.08 517.266H1148.37L1110.06 411.016Z" fill="#7A7A7A"/>
<path d="M1059.61 408.281C1069.65 408.281 1079.06 410.788 1087.86 415.801C1096.72 420.814 1103.63 427.617 1108.58 436.211C1113.53 444.805 1116.01 454.082 1116.01 464.043C1116.01 474.069 1113.5 483.444 1108.48 492.168C1103.53 500.892 1096.75 507.728 1088.15 512.676C1079.55 517.559 1070.07 520 1059.71 520C1044.47 520 1031.43 514.596 1020.62 503.789C1009.87 492.917 1004.49 479.733 1004.49 464.238C1004.49 447.637 1010.59 433.802 1022.77 422.734C1033.45 413.099 1045.74 408.281 1059.61 408.281ZM1060.01 433.379C1051.73 433.379 1044.82 436.276 1039.29 442.07C1033.81 447.799 1031.08 455.156 1031.08 464.141C1031.08 473.385 1033.78 480.872 1039.19 486.602C1044.66 492.331 1051.57 495.195 1059.91 495.195C1068.25 495.195 1075.19 492.298 1080.72 486.504C1086.26 480.71 1089.03 473.255 1089.03 464.141C1089.03 455.026 1086.3 447.637 1080.82 441.973C1075.41 436.243 1068.48 433.379 1060.01 433.379Z" fill="#7A7A7A"/>
<path d="M902.57 370H929.055V421.758C934.268 417.266 939.513 413.913 944.79 411.699C950.068 409.421 955.41 408.281 960.818 408.281C971.373 408.281 980.267 411.927 987.499 419.219C993.689 425.534 996.784 434.811 996.784 447.051V517.266H970.494V470.684C970.494 458.379 969.907 450.046 968.735 445.684C967.562 441.322 965.542 438.066 962.675 435.918C959.874 433.77 956.388 432.695 952.218 432.695C946.81 432.695 942.151 434.486 938.242 438.066C934.398 441.647 931.727 446.53 930.228 452.715C929.446 455.905 929.055 463.197 929.055 474.59V517.266H902.57V370Z" fill="#7A7A7A"/>
<path d="M892.417 425.859L875.9 442.363C869.189 435.723 863.097 432.402 857.624 432.402C854.627 432.402 852.282 433.053 850.588 434.355C848.894 435.592 848.047 437.155 848.047 439.043C848.047 440.475 848.568 441.81 849.61 443.047C850.718 444.219 853.389 445.846 857.624 447.93L867.398 452.812C877.692 457.891 884.761 463.066 888.606 468.34C892.45 473.613 894.372 479.798 894.372 486.895C894.372 496.335 890.886 504.212 883.914 510.527C877.008 516.842 867.723 520 856.061 520C840.554 520 828.174 513.945 818.922 501.836L835.341 483.965C838.469 487.611 842.117 490.573 846.287 492.852C850.522 495.065 854.269 496.172 857.527 496.172C861.045 496.172 863.879 495.326 866.029 493.633C868.179 491.94 869.255 489.987 869.255 487.773C869.255 483.672 865.378 479.668 857.624 475.762L848.633 471.27C831.432 462.611 822.832 451.771 822.832 438.75C822.832 430.352 826.057 423.19 832.507 417.266C839.023 411.276 847.33 408.281 857.429 408.281C864.335 408.281 870.818 409.811 876.878 412.871C883.002 415.866 888.182 420.195 892.417 425.859Z" fill="#7A7A7A"/>
<path d="M724.88 411.016H747.749V424.395C750.225 419.121 753.516 415.117 757.62 412.383C761.725 409.648 766.221 408.281 771.107 408.281C774.561 408.281 778.177 409.193 781.956 411.016L773.649 433.965C770.521 432.402 767.947 431.621 765.928 431.621C761.823 431.621 758.337 434.16 755.47 439.238C752.669 444.316 751.268 454.277 751.268 469.121L751.365 474.297V517.266H724.88V411.016Z" fill="#7A7A7A"/>
<path d="M716.444 471.855H630.732C631.97 479.408 635.26 485.43 640.603 489.922C646.011 494.349 652.885 496.562 661.225 496.562C671.193 496.562 679.761 493.079 686.928 486.113L709.407 496.66C703.804 504.603 697.093 510.495 689.274 514.336C681.455 518.112 672.171 520 661.42 520C644.74 520 631.156 514.759 620.666 504.277C610.176 493.73 604.931 480.547 604.931 464.727C604.931 448.516 610.143 435.072 620.568 424.395C631.058 413.652 644.187 408.281 659.954 408.281C676.699 408.281 690.316 413.652 700.806 424.395C711.296 435.072 716.541 449.199 716.541 466.777L716.444 471.855ZM689.665 450.859C687.906 444.935 684.42 440.117 679.207 436.406C674.06 432.695 668.066 430.84 661.225 430.84C653.797 430.84 647.281 432.923 641.678 437.09C638.16 439.694 634.902 444.284 631.905 450.859H689.665Z" fill="#7A7A7A"/>
<path d="M502.714 411.016H529.297V421.855C535.357 416.777 540.83 413.262 545.716 411.309C550.668 409.29 555.718 408.281 560.865 408.281C571.42 408.281 580.379 411.96 587.741 419.316C593.931 425.566 597.026 434.811 597.026 447.051V517.266H570.638V470.684C570.638 457.988 570.052 449.557 568.879 445.391C567.771 441.224 565.784 438.066 562.917 435.918C560.116 433.704 556.63 432.598 552.46 432.598C547.052 432.598 542.393 434.421 538.484 438.066C534.64 441.647 531.969 446.628 530.47 453.008C529.688 456.328 529.297 463.522 529.297 474.59V517.266H502.714V411.016Z" fill="#7A7A7A"/>
<path d="M440.353 411.016H463.222V424.395C465.698 419.121 468.988 415.117 473.093 412.383C477.198 409.648 481.694 408.281 486.58 408.281C490.034 408.281 493.65 409.193 497.429 411.016L489.121 433.965C485.994 432.402 483.42 431.621 481.4 431.621C477.296 431.621 473.81 434.16 470.943 439.238C468.141 444.316 466.741 454.277 466.741 469.121L466.838 474.297V517.266H440.353V411.016Z" fill="#7A7A7A"/>
<path d="M376.33 408.281C386.364 408.281 395.779 410.788 404.575 415.801C413.436 420.814 420.342 427.617 425.294 436.211C430.246 444.805 432.722 454.082 432.722 464.043C432.722 474.069 430.213 483.444 425.196 492.168C420.245 500.892 413.468 507.728 404.868 512.676C396.268 517.559 386.787 520 376.428 520C361.181 520 348.15 514.596 337.335 503.789C326.584 492.917 321.209 479.733 321.209 464.238C321.209 447.637 327.301 433.802 339.485 422.734C350.17 413.099 362.452 408.281 376.33 408.281ZM376.721 433.379C368.446 433.379 361.54 436.276 356.002 442.07C350.529 447.799 347.792 455.156 347.792 464.141C347.792 473.385 350.496 480.872 355.904 486.602C361.377 492.331 368.283 495.195 376.623 495.195C384.963 495.195 391.902 492.298 397.44 486.504C402.978 480.71 405.748 473.255 405.748 464.141C405.748 455.026 403.011 447.637 397.538 441.973C392.13 436.243 385.191 433.379 376.721 433.379Z" fill="#7A7A7A"/>
<path d="M323.265 432.5L301.08 444.707C296.91 440.345 292.773 437.318 288.668 435.625C284.628 433.932 279.872 433.086 274.399 433.086C264.43 433.086 256.351 436.081 250.161 442.07C244.037 447.995 240.974 455.612 240.974 464.922C240.974 473.971 243.939 481.361 249.868 487.09C255.797 492.819 263.583 495.684 273.226 495.684C285.149 495.684 294.434 491.615 301.08 483.477L322.092 497.832C310.69 512.611 294.597 520 273.812 520C255.113 520 240.453 514.466 229.833 503.398C219.278 492.331 214 479.375 214 464.531C214 454.245 216.574 444.772 221.721 436.113C226.868 427.454 234.035 420.651 243.222 415.703C252.474 410.755 262.801 408.281 274.203 408.281C284.758 408.281 294.239 410.397 302.644 414.629C311.049 418.796 317.922 424.753 323.265 432.5Z" fill="#7A7A7A"/>
<path d="M202.88 0C258.147 0.000108122 305.556 19.9467 345.108 59.8399C384.836 99.7331 404.7 148.364 404.7 205.733C404.7 258.512 387.573 304.054 353.319 342.358L421.121 430H333.189L298.758 385.782C270.33 401.316 238.635 409.083 203.674 409.083C145.23 409.083 96.6728 388.959 58.0039 348.713C19.3349 308.291 0 260.189 0 204.409C1.68453e-05 167.163 9.00494 133.007 27.0151 101.94C45.0253 70.6958 69.7452 45.8946 101.175 27.5366C132.781 9.17867 166.683 0 202.88 0ZM565.881 0C597.84 0 624.591 10.1499 646.132 30.4495C667.851 50.7491 678.71 74.8444 678.71 102.734C678.71 120.033 673.943 135.831 664.408 150.129C655.05 164.427 641.365 175.989 623.355 184.815C647.016 191.876 665.468 204.233 678.71 221.885C692.13 239.36 698.839 260.013 698.839 283.843C698.839 318.793 685.949 348.448 660.17 372.808C634.391 396.991 601.549 409.083 561.644 409.083C523.858 409.083 493.046 397.697 469.209 374.926C445.372 351.978 432.306 320.823 430.01 281.459H503.375C506.553 301.582 513.528 316.587 524.298 326.472C535.246 336.18 549.019 341.035 565.617 341.035C582.92 341.035 597.223 335.474 608.523 324.354C620 313.233 625.739 299.641 625.739 283.577C625.738 265.926 618.058 251.01 602.696 238.83C587.334 226.65 565.175 220.384 536.217 220.031V156.484C554.051 155.072 567.294 152.335 575.946 148.275C584.775 144.039 591.573 138.302 596.34 131.065C601.284 123.828 603.756 116.149 603.756 108.03C603.755 97.4384 600.048 88.7004 592.632 81.8161C585.216 74.7555 575.504 71.2249 563.498 71.2249C552.903 71.2249 543.28 74.4912 534.628 81.0224C525.976 87.377 520.061 95.6735 516.883 105.911H445.636C449.344 77.1389 459.674 54.0147 476.625 36.5393C500.286 12.1799 530.037 5.44957e-05 565.881 0ZM974.702 78.1096H847.572L831.681 149.07C836.095 147.835 840.42 146.952 844.658 146.423C848.896 145.717 852.958 145.364 856.842 145.364C892.156 145.364 921.467 157.455 944.774 181.638C968.258 205.644 980 236.447 980 274.045C980 311.997 967.022 344.035 941.066 370.16C915.287 396.108 883.857 409.083 846.777 409.083C813.582 409.083 785.066 399.639 761.229 380.751C737.392 361.864 721.765 336.004 714.349 303.171H792.217C798.22 315.351 806.078 324.619 815.789 330.973C825.677 337.151 836.536 340.24 848.366 340.24C864.787 340.24 878.736 334.327 890.213 322.5C901.69 310.673 907.43 295.492 907.43 276.958C907.43 258.953 902.044 244.214 891.273 232.74C880.678 221.09 867.789 215.264 852.604 215.264C844.482 215.264 836.448 217.294 828.502 221.354C820.733 225.414 813.052 231.505 805.46 239.625L745.072 226.121L792.217 9.79647H974.702V78.1096ZM202.88 72.5492C166.507 72.5492 136.048 85.0819 111.504 110.148C86.961 135.213 74.6894 167.075 74.6894 205.733C74.6895 248.803 90.1393 282.871 121.039 307.937C145.229 327.53 172.687 337.327 203.41 337.327C221.067 337.327 237.664 333.885 253.202 327.001L183.545 237.242H272.007L306.968 282.518C322.683 259.218 330.54 233.446 330.541 205.204C330.541 168.311 318.092 136.978 293.196 111.207C268.299 85.4351 238.194 72.5493 202.88 72.5492Z" fill="white"/>
</svg>
